<svg width="11" height="14" viewBox="0 0 11 14" fill="none" xmlns="http://www.w3.org/2000/svg">
<path d="M5.08328 4.30137C5.19379 4.41077 5.34368 4.47223 5.49997 4.47223C5.65626 4.47223 5.80615 4.41077 5.91666 4.30137L6.70237 3.52359C6.87091 3.35676 6.92132 3.10586 6.83011 2.88788C6.7389 2.66991 6.52403 2.52778 6.28568 2.52778H4.71426C4.47591 2.52778 4.26104 2.66991 4.16983 2.88788C4.07862 3.10586 4.12903 3.35676 4.29757 3.5236L5.08328 4.30137Z" fill="black" fill-opacity="0.5"/>
<path d="M5.08328 9.69864C5.19379 9.58924 5.34368 9.52778 5.49997 9.52778C5.65626 9.52778 5.80615 9.58924 5.91666 9.69864L6.70237 10.4764C6.87091 10.6432 6.92132 10.8941 6.83011 11.1121C6.7389 11.3301 6.52403 11.4722 6.28568 11.4722H4.71426C4.47591 11.4722 4.26104 11.3301 4.16983 11.1121C4.07862 10.8941 4.12903 10.6432 4.29757 10.4764L5.08328 9.69864Z" fill="black" fill-opacity="0.5"/>
<path fill-rule="evenodd" clip-rule="evenodd" d="M6.40278 7L6.54994 6.87449C8.10207 5.5507 9.39254 3.95329 10.3558 2.16338C10.7339 1.46098 10.2645 0.604589 9.46363 0.535271L8.54157 0.455468C6.5177 0.280306 4.48225 0.280306 2.45839 0.455469L1.53632 0.535272C0.735408 0.604591 0.2661 1.46099 0.644113 2.16338C1.60741 3.95329 2.89789 5.55071 4.45002 6.87449L4.59718 7L4.45002 7.12552C2.89789 8.4493 1.60741 10.0467 0.644113 11.8366C0.2661 12.539 0.735408 13.3954 1.53632 13.4647L2.45839 13.5445C4.48225 13.7197 6.5177 13.7197 8.54157 13.5445L9.46363 13.4647C10.2645 13.3954 10.7339 12.539 10.3558 11.8366C9.39254 10.0467 8.10207 8.4493 6.54994 7.12552L6.40278 7ZM5.50284 6.2271C5.50319 6.22697 5.50384 6.22672 5.50508 6.22567L5.78065 5.99064C7.20052 4.77964 8.38466 3.32212 9.27491 1.69006L8.43891 1.6177C6.48335 1.44845 4.5166 1.44845 2.56104 1.6177L1.72504 1.69006C2.61529 3.32212 3.79943 4.77965 5.21931 5.99064L5.49488 6.22567C5.49567 6.22634 5.49622 6.22669 5.4966 6.22688C5.49682 6.22699 5.49647 6.22683 5.4966 6.22688C5.4972 6.2271 5.4987 6.22754 5.49998 6.22754C5.50125 6.22754 5.50224 6.22732 5.50284 6.2271ZM5.50508 7.77434C5.50384 7.77329 5.50319 7.77304 5.50284 7.77291C5.50255 7.77281 5.50218 7.7727 5.50173 7.77262C5.50124 7.77253 5.50065 7.77246 5.49998 7.77246C5.4987 7.77246 5.49772 7.77269 5.49712 7.77291C5.49676 7.77304 5.49611 7.77329 5.49488 7.77434L5.21931 8.00937C3.79943 9.22036 2.61529 10.6779 1.72504 12.31L2.56104 12.3823C4.5166 12.5516 6.48335 12.5516 8.43891 12.3823L9.27491 12.31C8.38466 10.6779 7.20052 9.22036 5.78065 8.00937L5.50508 7.77434Z" fill="black" fill-opacity="0.5"/>
</svg>
