<svg width="16" height="16" viewBox="0 0 16 16" fill="none" xmlns="http://www.w3.org/2000/svg">
<path fill-rule="evenodd" clip-rule="evenodd" d="M5.16683 4.99999C5.16683 3.43518 6.43536 2.16666 8.00016 2.16666C9.56497 2.16666 10.8335 3.43518 10.8335 4.99999C10.8335 6.5648 9.56497 7.83332 8.00016 7.83332C6.43536 7.83332 5.16683 6.5648 5.16683 4.99999ZM8.00016 3.16666C6.98764 3.16666 6.16683 3.98747 6.16683 4.99999C6.16683 6.01251 6.98764 6.83332 8.00016 6.83332C9.01268 6.83332 9.8335 6.01251 9.8335 4.99999C9.8335 3.98747 9.01268 3.16666 8.00016 3.16666Z" fill="black" fill-opacity="0.5"/>
<path fill-rule="evenodd" clip-rule="evenodd" d="M5.3335 9.83332C4.50507 9.83332 3.8335 10.5049 3.8335 11.3333V12.1255C3.8335 12.1376 3.84224 12.1479 3.85414 12.1498C6.59998 12.5981 9.40035 12.5981 12.1462 12.1498C12.1581 12.1479 12.1668 12.1376 12.1668 12.1255V11.3333C12.1668 10.5049 11.4953 9.83332 10.6668 9.83332H10.4396C10.422 9.83332 10.4046 9.8361 10.3878 9.84156L9.81084 10.03C8.63429 10.4141 7.36604 10.4141 6.18949 10.03L5.61248 9.84156C5.59577 9.8361 5.57831 9.83332 5.56074 9.83332H5.3335ZM2.8335 11.3333C2.8335 9.95261 3.95278 8.83332 5.3335 8.83332H5.56074C5.68374 8.83332 5.80596 8.85277 5.92288 8.89095L6.49989 9.07936C7.47474 9.39768 8.52558 9.39768 9.50044 9.07936L10.0774 8.89095C10.1944 8.85277 10.3166 8.83332 10.4396 8.83332H10.6668C12.0475 8.83332 13.1668 9.95261 13.1668 11.3333V12.1255C13.1668 12.6277 12.8029 13.0558 12.3073 13.1367C9.45476 13.6025 6.54556 13.6025 3.69301 13.1367C3.19742 13.0558 2.8335 12.6277 2.8335 12.1255V11.3333Z" fill="black" fill-opacity="0.5"/>
</svg>
